<svg id="LOGO" xmlns="http://www.w3.org/2000/svg" xmlns:xlink="http://www.w3.org/1999/xlink" width="124.142" height="29.21" viewBox="0 0 124.142 29.21">
  <defs>
    <clipPath id="clip-path">
      <rect id="Rectangle_7" data-name="Rectangle 7" width="124.142" height="29.21" fill="none"/>
    </clipPath>
  </defs>
  <g id="Group_3" data-name="Group 3" clip-path="url(#clip-path)">
    <path id="Path_122" data-name="Path 122" d="M149.247,27.618a1.578,1.578,0,0,1-1.592,1.592,1.5,1.5,0,0,1-1.117-.462,1.561,1.561,0,0,1-.449-1.13v-13.4a10.622,10.622,0,0,0-3.26-7.83,11.064,11.064,0,0,0-15.635,0,10.664,10.664,0,0,0-3.235,7.83v13.4a1.578,1.578,0,0,1-1.592,1.592,1.506,1.506,0,0,1-1.1-.462,1.537,1.537,0,0,1-.462-1.13v-13.4a13.707,13.707,0,0,1,4.159-10.064,14.255,14.255,0,0,1,20.127,0,14.132,14.132,0,0,1,3.119,4.582,14.149,14.149,0,0,1,1.04,5.481Z" transform="translate(-87.769 0)"/>
    <path id="Path_123" data-name="Path 123" d="M263.339,26.37a1.592,1.592,0,1,1,0,3.183H242.056a1.577,1.577,0,0,1-1.142-.462,1.515,1.515,0,0,1-.476-1.13,1.653,1.653,0,0,1,.308-.976l19.152-23H242.056a1.577,1.577,0,0,1-1.142-.462,1.515,1.515,0,0,1-.476-1.13,1.515,1.515,0,0,1,.476-1.13A1.576,1.576,0,0,1,242.056.8h21.283a1.536,1.536,0,0,1,1.13.462,1.537,1.537,0,0,1,.462,1.13,1.6,1.6,0,0,1-.36,1.053L245.42,26.37Z" transform="translate(-174.691 -0.581)"/>
    <path id="Path_124" data-name="Path 124" d="M24.543,5.01A13.853,13.853,0,0,0,14.377.8,13.852,13.852,0,0,0,4.21,5.01,13.851,13.851,0,0,0,0,15.177,13.85,13.85,0,0,0,4.21,25.343a13.846,13.846,0,0,0,10.126,4.208v.006a1.59,1.59,0,0,0,.041-3.18V26.37a10.778,10.778,0,0,1-7.907-3.286,12.02,12.02,0,0,1-3.235-6.315H27.161a1.578,1.578,0,0,0,1.592-1.592A13.853,13.853,0,0,0,24.543,5.01M3.235,13.585A12.022,12.022,0,0,1,6.469,7.269a10.781,10.781,0,0,1,7.907-3.286,10.781,10.781,0,0,1,7.907,3.286,11.759,11.759,0,0,1,3.209,6.316Z" transform="translate(0 -0.581)"/>
    <path id="Path_125" data-name="Path 125" d="M362.169,5.5a16.378,16.378,0,0,0-23.16,0,15.778,15.778,0,0,0-4.8,11.58,15.777,15.777,0,0,0,4.8,11.58c.207.207.425.389.637.583h0a1.582,1.582,0,0,0,.165.114,1.784,1.784,0,0,0,.176.122,1.5,1.5,0,0,0,.363.159,1.73,1.73,0,0,0,.322.067c.031,0,.058.018.09.019s.04,0,.06,0,.037.005.056.005l0-.01a1.492,1.492,0,0,0,1-.453,1.578,1.578,0,0,0,0-2.251l-.319-.319-.011.011a13.218,13.218,0,1,1,18.038.007l-.009-.008-.319.319a1.562,1.562,0,0,0-.481,1.116,1.494,1.494,0,0,0,.463,1.116,1.578,1.578,0,0,0,2.251,0l.037-.037.024-.019.015.015c.2-.183.406-.354.6-.55a15.777,15.777,0,0,0,4.8-11.58,15.778,15.778,0,0,0-4.8-11.58" transform="translate(-242.823 -0.509)"/>
  </g>
</svg>
